<svg id="visual" viewBox="0 0 540 960" width="540" height="960" xmlns="http://www.w3.org/2000/svg" xmlns:xlink="http://www.w3.org/1999/xlink" version="1.1"><rect x="0" y="0" width="540" height="960" fill="#002233"></rect><g fill="none" stroke="#448fad" stroke-width="5"><circle r="54" cx="247" cy="403"></circle><circle r="23" cx="261" cy="856"></circle><circle r="35" cx="109" cy="63"></circle><circle r="49" cx="515" cy="794"></circle><circle r="41" cx="485" cy="463"></circle><circle r="44" cx="277" cy="120"></circle><circle r="25" cx="388" cy="767"></circle><circle r="29" cx="354" cy="334"></circle><circle r="45" cx="133" cy="421"></circle><circle r="34" cx="472" cy="233"></circle><circle r="40" cx="164" cy="721"></circle><circle r="38" cx="413" cy="603"></circle><circle r="38" cx="162" cy="537"></circle><circle r="33" cx="48" cy="330"></circle><circle r="26" cx="338" cy="471"></circle><circle r="23" cx="82" cy="208"></circle><circle r="33" cx="86" cy="874"></circle><circle r="45" cx="458" cy="102"></circle><circle r="34" cx="368" cy="29"></circle><circle r="46" cx="22" cy="740"></circle><circle r="47" cx="346" cy="214"></circle></g></svg>