<svg id="visual" viewBox="0 0 960 540" width="960" height="540" xmlns="http://www.w3.org/2000/svg" xmlns:xlink="http://www.w3.org/1999/xlink" version="1.1"><rect x="0" y="0" width="960" height="540" fill="#002233"></rect><path d="M0 183L22.8 175.7C45.7 168.3 91.3 153.7 137 135.8C182.7 118 228.3 97 274 103.7C319.7 110.3 365.3 144.7 411.2 152.5C457 160.3 503 141.7 548.8 134C594.7 126.3 640.3 129.7 686 141.8C731.7 154 777.3 175 823 182.5C868.7 190 914.3 184 937.2 181L960 178L960 0L937.2 0C914.3 0 868.7 0 823 0C777.3 0 731.7 0 686 0C640.3 0 594.7 0 548.8 0C503 0 457 0 411.2 0C365.3 0 319.7 0 274 0C228.3 0 182.7 0 137 0C91.3 0 45.7 0 22.8 0L0 0Z" fill="#4086a2" stroke-linecap="round" stroke-linejoin="miter"></path></svg>