<svg id="visual" viewBox="0 0 960 540" width="960" height="540" xmlns="http://www.w3.org/2000/svg" xmlns:xlink="http://www.w3.org/1999/xlink" version="1.1"><path d="M0 478L22.8 467.8C45.7 457.7 91.3 437.3 137 422.7C182.7 408 228.3 399 274 394.5C319.7 390 365.3 390 411.2 392C457 394 503 398 548.8 404.2C594.7 410.3 640.3 418.7 686 431.5C731.7 444.3 777.3 461.7 823 459.8C868.7 458 914.3 437 937.2 426.5L960 416L960 541L937.2 541C914.3 541 868.7 541 823 541C777.3 541 731.7 541 686 541C640.3 541 594.7 541 548.8 541C503 541 457 541 411.2 541C365.3 541 319.7 541 274 541C228.3 541 182.7 541 137 541C91.3 541 45.7 541 22.8 541L0 541Z" fill="#f0f0f0"></path><path d="M0 432L22.8 439.5C45.7 447 91.3 462 137 457.8C182.7 453.7 228.3 430.3 274 419C319.7 407.7 365.3 408.3 411.2 412.5C457 416.7 503 424.3 548.8 436.7C594.7 449 640.3 466 686 468.5C731.7 471 777.3 459 823 459.8C868.7 460.7 914.3 474.3 937.2 481.2L960 488L960 541L937.2 541C914.3 541 868.7 541 823 541C777.3 541 731.7 541 686 541C640.3 541 594.7 541 548.8 541C503 541 457 541 411.2 541C365.3 541 319.7 541 274 541C228.3 541 182.7 541 137 541C91.3 541 45.7 541 22.8 541L0 541Z" fill="#c6d5dc"></path><path d="M0 437L22.8 446.3C45.7 455.7 91.3 474.3 137 477.8C182.7 481.3 228.3 469.7 274 459.7C319.7 449.7 365.3 441.3 411.2 445.2C457 449 503 465 548.8 477.3C594.7 489.7 640.3 498.3 686 496.5C731.7 494.7 777.3 482.3 823 472.5C868.7 462.7 914.3 455.3 937.2 451.7L960 448L960 541L937.2 541C914.3 541 868.7 541 823 541C777.3 541 731.7 541 686 541C640.3 541 594.7 541 548.8 541C503 541 457 541 411.2 541C365.3 541 319.7 541 274 541C228.3 541 182.7 541 137 541C91.3 541 45.7 541 22.8 541L0 541Z" fill="#9cbac8"></path><path d="M0 498L22.8 502.3C45.7 506.7 91.3 515.3 137 510.3C182.7 505.3 228.3 486.7 274 485.7C319.7 484.7 365.3 501.3 411.2 505.7C457 510 503 502 548.8 493.8C594.7 485.7 640.3 477.3 686 473C731.7 468.7 777.3 468.3 823 473.5C868.7 478.7 914.3 489.3 937.2 494.7L960 500L960 541L937.2 541C914.3 541 868.7 541 823 541C777.3 541 731.7 541 686 541C640.3 541 594.7 541 548.8 541C503 541 457 541 411.2 541C365.3 541 319.7 541 274 541C228.3 541 182.7 541 137 541C91.3 541 45.7 541 22.8 541L0 541Z" fill="#71a0b5"></path><path d="M0 504L22.8 508.3C45.7 512.7 91.3 521.3 137 521.7C182.7 522 228.3 514 274 510.7C319.7 507.3 365.3 508.7 411.2 513.7C457 518.7 503 527.3 548.8 530.8C594.7 534.3 640.3 532.7 686 526.7C731.7 520.7 777.3 510.3 823 510.5C868.7 510.7 914.3 521.3 937.2 526.7L960 532L960 541L937.2 541C914.3 541 868.7 541 823 541C777.3 541 731.7 541 686 541C640.3 541 594.7 541 548.8 541C503 541 457 541 411.2 541C365.3 541 319.7 541 274 541C228.3 541 182.7 541 137 541C91.3 541 45.7 541 22.8 541L0 541Z" fill="#4086a2"></path></svg>