<svg id="visual" viewBox="0 0 960 540" width="960" height="540" xmlns="http://www.w3.org/2000/svg" xmlns:xlink="http://www.w3.org/1999/xlink" version="1.1"><rect x="0" y="0" width="960" height="540" fill="#000"></rect><path d="M0 110L22.8 107.5C45.7 105 91.3 100 137 100C182.7 100 228.3 105 274 120.3C319.7 135.7 365.3 161.3 411.2 165.8C457 170.3 503 153.7 548.8 134.7C594.7 115.7 640.3 94.3 686 95C731.7 95.7 777.3 118.3 823 119.2C868.7 120 914.3 99 937.2 88.5L960 78L960 0L937.2 0C914.3 0 868.7 0 823 0C777.3 0 731.7 0 686 0C640.3 0 594.7 0 548.8 0C503 0 457 0 411.2 0C365.3 0 319.7 0 274 0C228.3 0 182.7 0 137 0C91.3 0 45.7 0 22.8 0L0 0Z" fill="#003048" stroke-linecap="round" stroke-linejoin="miter"></path></svg>