<svg id="visual" viewBox="0 0 960 540" width="960" height="540" xmlns="http://www.w3.org/2000/svg" xmlns:xlink="http://www.w3.org/1999/xlink" version="1.1"><path d="M0 147L12.3 146C24.7 145 49.3 143 74 133C98.7 123 123.3 105 148 108.7C172.7 112.3 197.3 137.7 221.8 137.7C246.3 137.7 270.7 112.3 295.2 108.7C319.7 105 344.3 123 369 127.5C393.7 132 418.3 123 443 115.8C467.7 108.7 492.3 103.3 517 103.3C541.7 103.3 566.3 108.7 591 115.8C615.7 123 640.3 132 664.8 131.2C689.3 130.3 713.7 119.7 738.2 112.5C762.7 105.3 787.3 101.7 812 107C836.7 112.3 861.3 126.7 886 133C910.7 139.3 935.3 137.7 947.7 136.8L960 136L960 0L947.7 0C935.3 0 910.7 0 886 0C861.3 0 836.7 0 812 0C787.3 0 762.7 0 738.2 0C713.7 0 689.3 0 664.8 0C640.3 0 615.7 0 591 0C566.3 0 541.7 0 517 0C492.3 0 467.7 0 443 0C418.3 0 393.7 0 369 0C344.3 0 319.7 0 295.2 0C270.7 0 246.3 0 221.8 0C197.3 0 172.7 0 148 0C123.3 0 98.7 0 74 0C49.3 0 24.7 0 12.3 0L0 0Z" fill="#4086a2"></path><path d="M0 357L12.3 346.3C24.7 335.7 49.3 314.3 74 286.5C98.7 258.7 123.3 224.3 148 225.2C172.7 226 197.3 262 221.8 282.7C246.3 303.3 270.7 308.7 295.2 303.3C319.7 298 344.3 282 369 271.2C393.7 260.3 418.3 254.7 443 266.3C467.7 278 492.3 307 517 296.3C541.7 285.7 566.3 235.3 591 228.2C615.7 221 640.3 257 664.8 284C689.3 311 713.7 329 738.2 334.3C762.7 339.7 787.3 332.3 812 312.5C836.7 292.7 861.3 260.3 886 249.5C910.7 238.7 935.3 249.3 947.7 254.7L960 260L960 134L947.7 134.8C935.3 135.7 910.7 137.3 886 131C861.3 124.7 836.7 110.3 812 105C787.3 99.7 762.7 103.3 738.2 110.5C713.7 117.7 689.3 128.3 664.8 129.2C640.3 130 615.7 121 591 113.8C566.3 106.7 541.7 101.3 517 101.3C492.3 101.3 467.7 106.7 443 113.8C418.3 121 393.7 130 369 125.5C344.3 121 319.7 103 295.2 106.7C270.7 110.3 246.3 135.7 221.8 135.7C197.3 135.7 172.7 110.3 148 106.7C123.3 103 98.7 121 74 131C49.3 141 24.7 143 12.3 144L0 145Z" fill="#2b6883"></path><path d="M0 449L12.3 443.7C24.7 438.3 49.3 427.7 74 425C98.7 422.3 123.3 427.7 148 434.8C172.7 442 197.3 451 221.8 449.2C246.3 447.3 270.7 434.7 295.2 429.3C319.7 424 344.3 426 369 429.7C393.7 433.3 418.3 438.7 443 437.7C467.7 436.7 492.3 429.3 517 423.8C541.7 418.3 566.3 414.7 591 414.7C615.7 414.7 640.3 418.3 664.8 424.7C689.3 431 713.7 440 738.2 449C762.7 458 787.3 467 812 473.3C836.7 479.7 861.3 483.3 886 474.3C910.7 465.3 935.3 443.7 947.7 432.8L960 422L960 258L947.7 252.7C935.3 247.3 910.7 236.7 886 247.5C861.3 258.3 836.7 290.7 812 310.5C787.3 330.3 762.7 337.7 738.2 332.3C713.7 327 689.3 309 664.8 282C640.3 255 615.7 219 591 226.2C566.3 233.3 541.7 283.7 517 294.3C492.3 305 467.7 276 443 264.3C418.3 252.7 393.7 258.3 369 269.2C344.3 280 319.7 296 295.2 301.3C270.7 306.7 246.3 301.3 221.8 280.7C197.3 260 172.7 224 148 223.2C123.3 222.3 98.7 256.7 74 284.5C49.3 312.3 24.7 333.7 12.3 344.3L0 355Z" fill="#164b65"></path><path d="M0 541L12.3 541C24.7 541 49.3 541 74 541C98.7 541 123.3 541 148 541C172.7 541 197.3 541 221.8 541C246.3 541 270.7 541 295.2 541C319.7 541 344.3 541 369 541C393.7 541 418.3 541 443 541C467.7 541 492.3 541 517 541C541.7 541 566.3 541 591 541C615.7 541 640.3 541 664.8 541C689.3 541 713.7 541 738.2 541C762.7 541 787.3 541 812 541C836.7 541 861.3 541 886 541C910.7 541 935.3 541 947.7 541L960 541L960 420L947.7 430.8C935.3 441.7 910.7 463.3 886 472.3C861.3 481.3 836.7 477.7 812 471.3C787.3 465 762.7 456 738.2 447C713.7 438 689.3 429 664.8 422.7C640.3 416.3 615.7 412.7 591 412.7C566.3 412.7 541.7 416.3 517 421.8C492.3 427.3 467.7 434.7 443 435.7C418.3 436.7 393.7 431.3 369 427.7C344.3 424 319.7 422 295.2 427.3C270.7 432.7 246.3 445.3 221.8 447.2C197.3 449 172.7 440 148 432.8C123.3 425.7 98.7 420.3 74 423C49.3 425.7 24.7 436.3 12.3 441.7L0 447Z" fill="#003048"></path></svg>